<svg aria-hidden="true" style="position: absolute; width: 0; height: 0; overflow: hidden;" version="1.1" xmlns="http://www.w3.org/2000/svg" xmlns:xlink="http://www.w3.org/1999/xlink">
<defs>
<symbol id="icon-github" viewBox="0 0 32 32">
<path d="M16 0.395c-8.836 0-16 7.163-16 16 0 7.069 4.585 13.067 10.942 15.182 0.8 0.148 1.094-0.347 1.094-0.77 0-0.381-0.015-1.642-0.022-2.979-4.452 0.968-5.391-1.888-5.391-1.888-0.728-1.849-1.776-2.341-1.776-2.341-1.452-0.993 0.11-0.973 0.11-0.973 1.606 0.113 2.452 1.649 2.452 1.649 1.427 2.446 3.743 1.739 4.656 1.33 0.143-1.034 0.558-1.74 1.016-2.14-3.554-0.404-7.29-1.777-7.29-7.907 0-1.747 0.625-3.174 1.649-4.295-0.166-0.403-0.714-2.030 0.155-4.234 0 0 1.344-0.43 4.401 1.64 1.276-0.355 2.645-0.532 4.005-0.539 1.359 0.006 2.729 0.184 4.008 0.539 3.054-2.070 4.395-1.64 4.395-1.64 0.871 2.204 0.323 3.831 0.157 4.234 1.026 1.12 1.647 2.548 1.647 4.295 0 6.145-3.743 7.498-7.306 7.895 0.574 0.497 1.085 1.47 1.085 2.963 0 2.141-0.019 3.864-0.019 4.391 0 0.426 0.288 0.925 1.099 0.768 6.354-2.118 10.933-8.113 10.933-15.18 0-8.837-7.164-16-16-16z"></path>
</symbol>
<symbol id="icon-git" viewBox="0 0 32 32">
<path d="M31.397 14.575l-13.972-13.971c-0.804-0.805-2.109-0.805-2.915 0l-3.246 3.246 2.443 2.443c0.392-0.187 0.83-0.293 1.293-0.293 1.657 0 3 1.343 3 3 0 0.463-0.105 0.902-0.293 1.293l3.999 3.999c0.392-0.187 0.83-0.293 1.293-0.293 1.657 0 3 1.343 3 3s-1.343 3-3 3-3-1.343-3-3c0-0.463 0.105-0.902 0.293-1.293l-3.999-3.999c-0.095 0.046-0.193 0.086-0.293 0.121v8.343c1.165 0.412 2 1.522 2 2.829 0 1.657-1.343 3-3 3s-3-1.343-3-3c0-1.306 0.835-2.417 2-2.829v-8.343c-1.165-0.412-2-1.522-2-2.829 0-0.463 0.105-0.902 0.293-1.293l-2.443-2.443-9.247 9.246c-0.805 0.806-0.805 2.11 0 2.915l13.973 13.971c0.804 0.805 2.109 0.805 2.915 0l13.906-13.906c0.805-0.805 0.805-2.111-0-2.915z"></path>
</symbol>
</defs>
</svg>
